<svg class="education__logo" aria-hidden="true" focusable="false" role="img" xmlns="http://www.w3.org/2000/svg" viewBox="20 -220 1000 1300">
  <style type="text/css">
    .st0{fill:#231F20;}
    .st1{fill:#B01028;}
    .st2{fill:#006B3B;}
  </style>
  <path id="agh-brand-a" class="st0" d="M309.9,973.7h-61.7l-15.3,46.4h-34.6l50.6-149.6c4.3-12.6,5.1-15.6,5.1-19.5
	c0-6.4-2.7-10.6-10.6-17h51.1c4.6,0,18.7,2.9,25.3,21.4c0,0,58.6,164.7,58.6,164.7h-52.9L309.9,973.7z M278.6,881.4l-20.9,63.5h42.4
	L278.6,881.4z" />
  <path id="agh-brand-b" class="st0" d="M540.2,993.7c-4.1,0.8-8,1.1-11.8,1.1c-30.7,0-49.9-26.6-49.9-69.9c0-40.9,25.3-63,57.4-63
	c16.2,0,31.1,4.6,42.8,12.4V837c-13.1-4.8-27.6-7.4-42.8-7.4c-67,0-109,43.4-109,99.2c0,57.1,41.9,95.7,108.1,95.7
	c17.3,0,36.2-3,54.9-8.5v-84.3c0-12.1-10.1-21.6-21.9-21.6l-38.2,0c8.1,7.2,10.5,13,10.5,24.4V993.7" />
  <path id="agh-brand-c" class="st0" d="M722.4,858v52.3h56.8v-75.8H829v185.6h-49.8v-78.3h-56.8v78.3h-50V858.3
	c0-11.3-2.4-17.2-10.5-24.3h37C711.9,834,722.4,844.7,722.4,858" />
  <path id="agh-brand-red-middle" class="st1" d="M648.1,709.9c67.2-20.7,118.9-62,118.9-165.4l0-558.3h-41.3l0,558.3
	C725.6,637.5,689.4,681.5,648.1,709.9" />
  <path id="agh-brand-red-left" class="st1" d="M681.7,709.9C720.5,704.7,829,684,829,544.5l0-558.3h-41.4l0,558.3
	C787.7,658.2,720.5,691.8,681.7,709.9" />
  <path id="agh-brand-red-right" class="st1" d="M622.2,709.9c51.7-25.9,82.7-72.7,82.7-165.4l0-558.3h-41.4l0,548
	C663.6,616.8,653.1,678.9,622.2,709.9" />
  <path id="agh-brand-black-middle" class="st0" d="M420.6-200c67.2,20.7,118.9,62,118.9,165.4l0,641l-41.4,0v-641
	C498.2-127.6,462-171.6,420.6-200" />
  <path id="agh-brand-black-right" class="st0" d="M454.2-200c38.8,5.2,147.3,25.9,147.3,165.4l0,641h-41.3l0-641
	C560.2-148.3,493-181.9,454.2-200" />
  <path id="agh-brand-black-left" class="st0" d="M394.8-200c51.7,25.9,82.7,72.7,82.7,165.4v641l-41.4,0V-24.2
	C436.1-106.9,425.6-169,394.8-200" />
  <path id="agh-brand-green-middle" class="st2" d="M389.6,709.9c-67.2-20.7-118.9-62-118.9-165.4V-13.9H312v558.3
	C312.1,637.5,348.2,681.5,389.6,709.9" />
  <path id="agh-brand-green-left" class="st2" d="M356,709.9c-38.8-5.2-147.3-25.9-147.3-165.4V-13.9H250v558.3
	C250,658.2,317.2,691.8,356,709.9" />
  <path id="agh-brand-green-right" class="st2" d="M415.4,709.9c-51.7-25.9-82.7-72.7-82.7-165.4l0-558.3h41.4v548
	C374.1,616.8,384.6,678.9,415.4,709.9" />
</svg>