<svg aria-hidden="true" focusable="false" role="img" xmlns="http://www.w3.org/2000/svg" viewBox="-255 57 448 448" class="link__icon">
  <path fill="currentColor" d="M22.3,450.7c-8.4,1.5-11.5-3.7-11.5-8c0-5.4,0.2-33,0.2-55.3c0-15.6-5.2-25.5-11.3-30.7c37-4.1,76-9.2,76-73.1 c0-18.2-6.5-27.3-17.1-39c1.7-4.3,7.4-22-1.7-45c-13.9-4.3-45.7,17.9-45.7,17.9c-13.2-3.7-27.5-5.6-41.6-5.6s-28.4,1.9-41.6,5.6 c0,0-31.8-22.2-45.7-17.9c-9.1,22.9-3.5,40.6-1.7,45c-10.6,11.7-15.6,20.8-15.6,39c0,63.6,37.3,69,74.3,73.1 c-4.8,4.3-9.1,11.7-10.6,22.3c-9.5,4.3-33.8,11.7-48.3-13.9c-9.1-15.8-25.5-17.1-25.5-17.1c-16.2-0.2-1.1,10.2-1.1,10.2 c10.8,5,18.4,24.2,18.4,24.2c9.7,29.7,56.1,19.7,56.1,19.7c0,13.9,0.2,36.5,0.2,40.6c0,4.3-3,9.5-11.5,8 c-66-22.1-112.2-84.9-112.2-158.3c0-91.8,70.2-161.5,162-161.5S133,200.6,133,292.4C133.1,365.8,88.3,428.7,22.3,450.7z  M-75.8,389.6c-1.9,0.4-3.7-0.4-3.9-1.7c-0.2-1.5,1.1-2.8,3-3.2c1.9-0.2,3.7,0.6,3.9,1.9C-72.5,387.9-73.8,389.2-75.8,389.6 L-75.8,389.6z M-85.3,388.7c0,1.3-1.5,2.4-3.5,2.4c-2.2,0.2-3.7-0.9-3.7-2.4c0-1.3,1.5-2.4,3.5-2.4 C-87.1,386.1-85.3,387.2-85.3,388.7z M-99,387.6c-0.4,1.3-2.4,1.9-4.1,1.3c-1.9-0.4-3.2-1.9-2.8-3.2c0.4-1.3,2.4-1.9,4.1-1.5 C-99.8,384.8-98.5,386.3-99,387.6L-99,387.6z M-111.3,382.2c-0.9,1.1-2.8,0.9-4.3-0.6c-1.5-1.3-1.9-3.2-0.9-4.1 c0.9-1.1,2.8-0.9,4.3,0.6C-110.9,379.4-110.4,381.4-111.3,382.2z M-120.4,373.1c-0.9,0.6-2.6,0-3.7-1.5s-1.1-3.2,0-3.9 c1.1-0.9,2.8-0.2,3.7,1.3C-119.3,370.5-119.3,372.3-120.4,373.1z M-126.9,363.4c-0.9,0.9-2.4,0.4-3.5-0.6c-1.1-1.3-1.3-2.8-0.4-3.5 c0.9-0.9,2.4-0.4,3.5,0.6C-126.2,361.2-126,362.7-126.9,363.4z M-133.6,356c-0.4,0.9-1.7,1.1-2.8,0.4c-1.3-0.6-1.9-1.7-1.5-2.6 c0.4-0.6,1.5-0.9,2.8-0.4C-133.8,354.1-133.2,355.2-133.6,356z"></path>
</svg>