<svg aria-hidden="true" focusable="false" role="img" xmlns="http://www.w3.org/2000/svg" viewBox="-255 57 444 444">
  <path d="M193,57h-448l0,0v444l0,0l448,4l0,0V57L193,57z M-119.6,441H-186V227.2h66.5V441H-119.6z M-152.8,198	c-21.3,0-38.5-17.3-38.5-38.5s17.2-38.5,38.5-38.5c21.2,0,38.5,17.3,38.5,38.5C-114.3,180.8-131.5,198-152.8,198z M129.3,441H62.9	V337c0-24.8-0.5-56.7-34.5-56.7c-34.6,0-39.9,27-39.9,54.9V441h-66.4V227.2h63.7v29.2h0.9c8.9-16.8,30.6-34.5,62.9-34.5 c67.2,0,79.7,44.3,79.7,101.9V441z"></path>
</svg>