<svg aria-hidden="true" focusable="false" role="img" xmlns="http://www.w3.org/2000/svg" viewBox="-257 59 444 444" class="link__icon">
  <path fill="currentColor" d="M-121.6,443H-188V229.2h66.5L-121.6,443L-121.6,443z M-154.8,200c-21.3,0-38.5-17.3-38.5-38.5s17.2-38.5,38.5-38.5 c21.2,0,38.5,17.3,38.5,38.5C-116.3,182.8-133.5,200-154.8,200z M127.3,443H60.9V339c0-24.8-0.5-56.7-34.5-56.7 c-34.6,0-39.9,27-39.9,54.9V443h-66.4V229.2h63.7v29.2h0.9c8.9-16.8,30.6-34.5,62.9-34.5c67.2,0,79.7,44.3,79.7,101.9L127.3,443 L127.3,443z"></path>
</svg>