<svg version="1.1" id="wd-banner" xmlns="http://www.w3.org/2000/svg" xmlns:xlink="http://www.w3.org/1999/xlink" x="0px" y="0px" viewBox="58 -97.2 1076.1 755.2" style="enable-background:new 58 -97.2 1076.1 755.2;" xml:space="preserve">
	<style type="text/css">
	.wd0{fill:#D3D3D3}
	.wd1{opacity:0.1;enable-background:new    ;}
	.wd2{fill:#A0616A;}
	.wd3{fill:#D0CDE1;}
	.wd4{fill:#F2F2F2;}
	.wd5{fill:hsl(207, 90%, 75%);}
	.wd6{fill:hsl(207, 75%, 50%);}
</style>
	<g id="wd-laptop">
		<path class="wd0" d="M411.9,642.7c1.3,3.9,136.8-1.3,138.2-2.6c1.1-1.6,2.1-3.4,2.9-5.3c1.2-2.6,2.4-5.3,2.4-5.3l-5.3-42.6
	l-134.2-4.8c0,0-3.4,36.1-4,52.6C411.7,639,411.7,641.9,411.9,642.7z" />
		<path class="wd1" d="M411.9,642.7c1.3,3.9,136.8-1.3,138.2-2.6c1.1-1.6,2.1-3.4,2.9-5.3H411.8C411.7,639,411.7,641.9,411.9,642.7z" />
		<polygon class="wd1" points="456.7,604.6 457,604.5 455.4,620.4 422.5,620.4 422.5,604.6 	" />
		<polygon class="wd1" points="533,592.7 535.6,629.6 476.4,629.6 476.4,592.7 	" />
		<path class="wd0" d="M587.5,475.3l8.6,35.3c0.1,0.4,0.1,0.8,0,1.2L557.2,633c-0.4,1.2-1.6,1.8-2.8,1.4c-0.8-0.3-1.4-1-1.5-1.8
	l-5.4-47.2c0-0.3,0-0.6,0.1-0.9l35.6-109.3c0.4-1.2,1.6-1.8,2.8-1.4C586.7,473.9,587.3,474.5,587.5,475.3z" />
		<polygon fill="hsl(209, 21%, 5%)" points="584.3,478.3 592.2,508.5 558,619.1 550.1,584.8 	" />
	</g>
	<g id="wd-man">
		<path fill="#1c2e4d" d="M202.7,504.6h36.8l90.8-35.5c0,0,64.5-26.3,59.2,23.7s-14.5,117.1-14.5,117.1s-28.9-13.2-44.7-9.2
		s-5.3-80.3-5.3-80.3s-128.9,61.8-140.8,53.9s-14.5-63.2-14.5-63.2L202.7,504.6z" />
		<path id="wd-left-hand" fill="#905760" d="M260.8,389.2l44.6,64.1l103.9,86.8c0,0,96.1,22.4,82.9,38.2s-93.4-15.8-93.4-15.8
		S279,475.6,275.1,469.1s-47.4-68.4-47.4-68.4L260.8,389.2z" />
		<path class="wd3" d="M234.3,337.5l28.9,56.6c0,0-6.6,27.6-17.1,30.3s-55.3-34.2-55.3-34.2L234.3,337.5z" />
		<path class="wd1" d="M234.3,337.5l28.9,56.6c0,0-6.6,27.6-17.1,30.3s-55.3-34.2-55.3-34.2L234.3,337.5z" />
		<circle class="wd2" cx="254" cy="259.8" r="59.2" />
		<path class="wd2" d="M250.1,312.5c0,0-19.7,34.2-23.7,52.6s-59.2-36.8-59.2-36.8l-7.2-19.1c0,0,52-24.3,48-44.1
		S250.1,312.5,250.1,312.5z" />
		<path id="wd-right-hand" class="wd2" d="M260.6,415.1l53.9,71.1l128.9,96.1c0,0,93.4,19.7,72.4,34.2s-81.6-13.2-81.6-13.2
		S304,533.5,276.4,504.6S197.5,427,197.5,427L260.6,415.1z" />
		<path fill="#203354" d="M188.3,525.6l15.8,25l94.2-29.6c20.7-6.5,43.3-4.1,61.7,7.4c16.4,10.4,27,26.8,3.3,51.2
		c-47.4,48.7-78.9,22.4-78.9,22.4s-159.2,75-185.5,38.2s-27.6-55.3-27.6-55.3S172.5,521.7,188.3,525.6z" />
		<path class="wd3" d="M385.6,612.5c0,0,42.1,27.6-7.9,40.8s-86.8-5.3-86.8-5.3s-43.4,0-43.4-22.4s14.5-25,14.5-25l44.7,6.6
		C306.7,607.2,360.6,592.7,385.6,612.5z" />
		<path fill="#1b1209" d="M302.6,245c4,1.8,8,3.9,12.4,4.4s9.4-1,11.4-4.9c1.1-2.1,1.2-4.6,1.3-7c0.2-7.2-0.4-15-4.9-20.6
		c-2.9-3.6-7.2-5.8-10.2-9.3c-2.2-2.5-3.6-5.5-5.1-8.4c-5.9-11-14.6-21.6-26.6-24.8c-5-1.3-10.3-1.3-15.5-1.2l-30.4,0.4
		c-4.9,0.1-9.9,0.2-14.6,1.6c-9.8,3-16.9,11.2-23.4,19.1c-4.9,5.9-9.8,11.8-13.4,18.5c-5.3,9.8-7.9,20.8-7.7,31.9
		c0,2.9,0.3,5.7,1.1,8.4c0.9,2.5,2,5,3.3,7.3c5.7,11.2,9.1,25.2,2.7,36c11.2-4.6,22.2-10.5,29.5-20.1c3.3-4.3,5.9-9.3,10.3-12.4
		s11.5-3.4,14.3,1.2c1,1.9,1.5,3.9,1.5,6c0.2,3.4,0.2,7,1.7,10.2s4.9,5.7,8.3,4.7c5.7-1.6,5.2-10.4,9.6-14.4c3.4-3,8.5-2.5,12.8-3.8
		c5-1.6,8.8-5.9,10.9-10.8c1.6-3.7,1.6-13.2,4.7-15.2C290.2,239.4,299,243.4,302.6,245z" />
		<path class="wd3" d="M197.5,336.2c0,0,80.3,59.2,65.8,84.2c0,0-48.7,23.7-59.2,22.4s-51.3-47.4-61.8-51.3S126.4,316.4,197.5,336.2z
		" />
		<path class="wd3" d="M155.3,302.9c2.7-0.7,5.5-0.7,8.1,0c8.4,2.3,27.4,8.3,31.4,17.4c5.3,11.8,23.7,30.3,23.7,30.3s25,25,19.7,42.1
		s-25,36.8-25,36.8s5.3,81.6-21.1,102.6s-36.8,6.6-36.8,26.3S73.8,640.1,58,601.9c0,0,7.9-71.1,5.3-96.1
		C60.7,481.3,64.5,327.5,155.3,302.9z" />
	</g>
	<g id="wd-window">
		<circle id="wd-image-1" class="wd4" cx="556.1" cy="140.2" r="65" />
		<path class="wd5" d="M1092.9,55.8H728.7v-76.2h364.2V55.8z M730.3,54.2h361v-73h-361V54.2z" />
		<rect id="wd-color" x="703.8" y="-5.2" class="wd6" width="362.6" height="74.6" />
		<circle class="wd6" cx="474.6" cy="-82" r="5.6" />
		<circle class="wd6" cx="493.8" cy="-82" r="5.6" />
		<circle class="wd6" cx="513.1" cy="-82" r="5.6" />
		<path class="wd5" d="M1134.1,342.4H458.5V-97.2h675.5V342.4z M460.1,340.8h672.3V-95.6H460.1V340.8z" />
		<rect x="459.3" y="-72.9" class="wd5" width="673.9" height="1.6" />
		<path class="wd5" d="M476.2-78c-3.5,0-6.4-2.9-6.4-6.4c0-3.5,2.9-6.4,6.4-6.4c3.5,0,6.4,2.9,6.4,6.4C482.6-80.8,479.7-78,476.2-78z
		 M476.2-89.2c-2.7,0-4.8,2.2-4.8,4.8s2.2,4.8,4.8,4.8c2.7,0,4.8-2.2,4.8-4.8C481-87,478.8-89.2,476.2-89.2z" />
		<path class="wd5" d="M495.4-78c-3.5,0-6.4-2.9-6.4-6.4c0-3.5,2.9-6.4,6.4-6.4c3.5,0,6.4,2.9,6.4,6.4C501.8-80.8,499-78,495.4-78z
		 M495.4-89.2c-2.7,0-4.8,2.2-4.8,4.8s2.2,4.8,4.8,4.8c2.7,0,4.8-2.2,4.8-4.8C500.2-87,498.1-89.2,495.4-89.2z" />
		<path class="wd5" d="M514.7-78c-3.5,0-6.4-2.9-6.4-6.4s2.9-6.4,6.4-6.4c3.5,0,6.4,2.9,6.4,6.4c0,0,0,0,0,0
		C521.1-80.8,518.2-78,514.7-78z M514.7-89.2c-2.7,0-4.8,2.2-4.8,4.8c0,2.7,2.2,4.8,4.8,4.8c2.7,0,4.8-2.2,4.8-4.8c0,0,0,0,0,0
		C519.5-87,517.3-89.2,514.7-89.2z" />
		<rect x="670.1" y="-72.1" class="wd5" width="1.6" height="414.3" />
		<rect x="746.7" y="131.6" class="wd4" width="117.9" height="16" />
		<rect x="932.1" y="131.6" class="wd4" width="117.9" height="16" />
		<path class="wd5" d="M871.9,140.5H752.3v-17.7h119.5V140.5z M754,138.9h116.3v-14.4H754V138.9z" />
		<rect id="wd-center-1" x="746.7" y="256" class="wd4" width="117.9" height="16" />
		<path id="wd-center-2" class="wd5" d="M871.9,264.8H752.3v-17.7h119.5V264.8z M754,263.2h116.3v-14.4H754V263.2z" />
		<rect x="747.1" y="192.2" class="wd4" width="303.3" height="16" />
		<path class="wd5" d="M1057.6,202.6H752.8V185h304.9V202.6z M754.4,201H1056v-14.4H754.4V201z" />
		<path class="wd5" d="M1057.2,140.5H937.7v-17.7h119.5V140.5z M939.3,138.9h116.3v-14.4H939.3L939.3,138.9z" />
		<path id="wd-image-2" class="wd5" d="M567.1,188.2c-36.5,0-66-29.5-66-66s29.5-66,66-66s66,29.5,66,66C633,158.7,603.5,188.2,567.1,188.2z
		 M567.1,58.2c-35.3,0-64,28.7-64,64s28.7,64,64,64s64-28.7,64-64C631,86.9,602.4,58.3,567.1,58.2z" />
	</g>
</svg>