<svg aria-hidden="true" focusable="false" role="img" xmlns="http://www.w3.org/2000/svg" viewBox="-181 -17.3 489.7 436.9">
	<path style="fill:#61DAFB;" d="M308.7,201.2c0-32.5-40.7-63.3-103.1-82.4c14.4-63.6,8-114.2-20.2-130.4c-6.5-3.8-14.1-5.6-22.4-5.6
		V5.1c4.6,0,8.3,0.9,11.4,2.6c13.6,7.8,19.5,37.5,14.9,75.7c-1.1,9.4-2.9,19.3-5.1,29.4c-19.6-4.8-41-8.5-63.5-10.9
		c-13.5-18.5-27.5-35.3-41.6-50C111.7,21.6,142.3,5,163.1,5v-22.3l0,0c-27.5,0-63.5,19.6-99.9,53.6C26.8,2.5-9.2-16.9-36.7-16.9V5.4
		c20.7,0,51.4,16.5,84,46.6c-14,14.7-28,31.4-41.3,49.9c-22.6,2.4-44,6.1-63.6,11c-2.3-10-4-19.7-5.2-29
		C-67.5,45.7-61.7,16-48.2,8.1c3-1.8,6.9-2.6,11.5-2.6v-22.3l0,0c-8.4,0-16,1.8-22.6,5.6C-87.4,5-93.7,55.5-79.2,118.9
		c-62.2,19.2-102.7,49.9-102.7,82.3c0,32.5,40.7,63.3,103.1,82.4c-14.4,63.6-8,114.2,20.2,130.4c6.5,3.8,14.1,5.6,22.5,5.6
		c27.5,0,63.5-19.6,99.9-53.6c36.4,33.8,72.4,53.2,99.9,53.2c8.4,0,16-1.8,22.6-5.6c28.1-16.2,34.4-66.7,19.9-130.1
		C268.2,264.4,308.7,233.6,308.7,201.2z M178.5,134.5c-3.7,12.9-8.3,26.2-13.5,39.5c-4.1-8-8.4-16-13.1-24
		c-4.6-8-9.5-15.8-14.4-23.4C151.7,128.7,165.4,131.3,178.5,134.5z M132.7,241c-7.8,13.5-15.8,26.3-24.1,38.2c-14.9,1.3-30,2-45.2,2
		c-15.1,0-30.2-0.7-45-1.9c-8.3-11.9-16.4-24.6-24.2-38c-7.6-13.1-14.5-26.4-20.8-39.8c6.2-13.4,13.2-26.8,20.7-39.9
		c7.8-13.5,15.8-26.3,24.1-38.2c14.9-1.3,30-2,45.2-2c15.1,0,30.2,0.7,45,1.9c8.3,11.9,16.4,24.6,24.2,38
		c7.6,13.1,14.5,26.4,20.8,39.8C147.1,214.5,140.2,227.9,132.7,241z M165,228c5.4,13.4,10,26.8,13.8,39.8c-13.1,3.2-26.9,5.9-41.2,8
		c4.9-7.7,9.8-15.6,14.4-23.7C156.6,244.1,160.9,236,165,228z M63.6,334.7c-9.3-9.6-18.6-20.3-27.8-32c9,0.4,18.2,0.7,27.5,0.7
		c9.4,0,18.7-0.2,27.8-0.7C82.1,314.4,72.8,325.1,63.6,334.7z M-10.8,275.8c-14.2-2.1-27.9-4.7-41-7.9c3.7-12.9,8.3-26.2,13.5-39.5
		c4.1,8,8.4,16,13.1,24C-20.5,260.4-15.7,268.2-10.8,275.8z M63.1,67.7c9.3,9.6,18.6,20.3,27.8,32c-9-0.4-18.2-0.7-27.5-0.7
		c-9.4,0-18.7,0.2-27.8,0.7C44.6,88,53.9,77.3,63.1,67.7z M-10.9,126.6c-4.9,7.7-9.8,15.6-14.4,23.7c-4.6,8-8.9,16-13,24
		c-5.4-13.4-10-26.8-13.8-39.8C-39,131.4-25.2,128.7-10.9,126.6z M-101.4,251.8c-35.4-15.1-58.3-34.9-58.3-50.6s22.9-35.6,58.3-50.6
		c8.6-3.7,18-7,27.7-10.1c5.7,19.6,13.2,40,22.5,60.9c-9.2,20.8-16.6,41.1-22.2,60.6C-83.3,258.9-92.7,255.5-101.4,251.8z
		 M-47.6,394.7c-13.6-7.8-19.5-37.5-14.9-75.7c1.1-9.4,2.9-19.3,5.1-29.4c19.6,4.8,41,8.5,63.5,10.9c13.5,18.5,27.5,35.3,41.6,50
		c-32.6,30.3-63.2,46.9-84,46.9C-40.8,397.3-44.6,396.4-47.6,394.7z M189.6,318.5c4.7,38.2-1.1,67.9-14.6,75.8
		c-3,1.8-6.9,2.6-11.5,2.6c-20.7,0-51.4-16.5-84-46.6c14-14.7,28-31.4,41.3-49.9c22.6-2.4,44-6.1,63.6-11
		C186.7,299.5,188.5,309.2,189.6,318.5z M228.1,251.8c-8.6,3.7-18,7-27.7,10.1c-5.7-19.6-13.2-40-22.5-60.9
		c9.2-20.8,16.6-41.1,22.2-60.6c9.9,3.1,19.3,6.5,28.1,10.2c35.4,15.1,58.3,34.9,58.3,50.6C286.4,216.9,263.5,236.8,228.1,251.8z" />
	<path style="fill:#61DAFB;" d="M-36.8-16.9L-36.8-16.9L-36.8-16.9z" />
	<circle style="fill:#61DAFB;" cx="63.3" cy="201.2" r="45.7" />
	<path style="fill:#61DAFB;" d="M162.9-17.2L162.9-17.2L162.9-17.2z" />
</svg>