<svg aria-hidden="true" focusable="false" role="img" xmlns="http://www.w3.org/2000/svg" viewBox="-184 -126.2 164 164">
	<path style="fill:#689F63;" d="M-116.3,28.4c-1.9,0-3.9-0.5-5.6-1.5l-17.8-10.5c-2.7-1.5-1.4-2-0.5-2.3c3.5-1.2,4.3-1.5,8-3.7
	c0.4-0.2,0.9-0.1,1.3,0.1l13.7,8.1c0.5,0.3,1.2,0.3,1.7,0l53.3-30.7c0.5-0.3,0.8-0.9,0.8-1.4V-75c0-0.6-0.3-1.2-0.8-1.5l-53.2-30.7
	c-0.5-0.3-1.1-0.3-1.6,0l-53.2,30.7c-0.5,0.3-0.8,0.9-0.8,1.5v61.5c0,0.6,0.3,1.1,0.8,1.4l14.6,8.4c7.9,4,12.8-0.7,12.8-5.4v-60.7
	c0-0.9,0.7-1.5,1.5-1.5h6.7c0.8,0,1.5,0.7,1.5,1.5v60.7c0,10.6-5.8,16.6-15.8,16.6c-3.1,0-5.5,0-12.3-3.3l-14-8.1
	c-3.5-2-5.6-5.7-5.6-9.7V-75c0-4,2.1-7.7,5.6-9.7l53.3-30.8c3.4-1.9,7.9-1.9,11.2,0l53.3,30.8c3.4,2,5.6,5.7,5.6,9.7v61.5
	c0,4-2.1,7.7-5.6,9.7l-53.3,30.8C-112.4,27.9-114.4,28.4-116.3,28.4" />
	<path style="fill:#689F63;" d="M-99.9-13.9c-23.3,0-28.2-10.7-28.2-19.7c0-0.9,0.7-1.5,1.5-1.5h6.9c0.8,0,1.4,0.6,1.5,1.3
	c1,7,4.1,10.5,18.2,10.5c11.2,0,16-2.5,16-8.5c0-3.4-1.4-6-18.8-7.7c-14.6-1.4-23.6-4.7-23.6-16.3c0-10.7,9.1-17.1,24.3-17.1
	c17.1,0,25.5,5.9,26.6,18.6c0,0.4-0.1,0.9-0.4,1.2c-0.3,0.3-0.7,0.5-1.1,0.5H-84c-0.7,0-1.3-0.5-1.5-1.2c-1.7-7.4-5.7-9.7-16.6-9.7
	c-12.3,0-13.7,4.3-13.7,7.5c0,3.9,1.7,5,18.2,7.2c16.4,2.2,24.1,5.2,24.1,16.7C-73.4-20.5-83.1-13.8-99.9-13.9 M-35.1-79h1.8
	c1.5,0,1.7-1,1.7-1.6c0-1.6-1.1-1.6-1.7-1.6h-1.8L-35.1-79z M-37.3-84.1h4c1.4,0,4,0,4,3c0,2.1-1.4,2.6-2.2,2.8
	c1.6,0.1,1.7,1.1,1.9,2.6c0.1,0.9,0.3,2.5,0.6,3h-2.4c-0.1-0.5-0.4-3.5-0.4-3.6c-0.2-0.7-0.4-1-1.2-1h-2v4.6h-2.2V-84.1z M-42-78.3
	c0,4.8,3.9,8.6,8.6,8.6c4.8,0,8.6-3.9,8.6-8.6c0-4.8-3.9-8.6-8.6-8.6C-38.1-86.9-42-83.2-42-78.3 M-23.2-78.3
	c0,5.7-4.6,10.3-10.3,10.3c-5.6,0-10.3-4.6-10.3-10.3c0-5.8,4.8-10.3,10.3-10.3C-27.9-88.6-23.2-84.1-23.2-78.3" />
</svg>