<svg aria-hidden="true" focusable="false" role="img" xmlns="http://www.w3.org/2000/svg" viewBox="-343 224 114 113.9">
	<path style="fill:#F05133;" d="M-231.2,276l-49.7-49.7c-2.9-2.9-7.5-2.9-10.4,0l-10.3,10.3l13.1,13.1c3-1,6.5-0.3,9,2.1
	c2.4,2.4,3.1,6,2.1,9l12.6,12.6c3.1-1.1,6.6-0.4,9,2.1c3.4,3.4,3.4,8.9,0,12.3c-3.4,3.4-8.9,3.4-12.3,0c-2.6-2.6-3.2-6.3-1.9-9.5
	l-11.8-11.8l0,31c0.8,0.4,1.6,1,2.3,1.7c3.4,3.4,3.4,8.9,0,12.3c-3.4,3.4-8.9,3.4-12.3,0c-3.4-3.4-3.4-8.9,0-12.3
	c0.8-0.8,1.8-1.5,2.9-1.9V266c-1-0.4-2-1.1-2.9-1.9c-2.6-2.6-3.2-6.4-1.9-9.5l-12.9-12.9l-34.1,34.1c-2.9,2.9-2.9,7.5,0,10.4
	l49.7,49.7c2.9,2.9,7.5,2.9,10.4,0l49.5-49.5C-228.4,283.5-228.4,278.8-231.2,276" />
</svg>