<svg aria-hidden="true" focusable="false" role="img" xmlns="http://www.w3.org/2000/svg" viewBox="-334 76.4 338 338">
	<g id="g3013" transform="translate(119,276.3622)">
		<polygon id="polygon2989" style="fill:#264DE4;" points="-138.9,-195.5 -165.3,100.7 -284.2,133.6 -402.7,100.7 -429.1,-195.5 	" />
		<polygon id="polygon2991" style="fill:#2965F1;" points="-187.9,81.8 -165.4,-171.3 -284,-171.3 -284,108.4 	" />
		<polygon id="polygon2993" style="fill:#EBEBEB;" points="-368.5,-61.4 -365.3,-25.1 -284,-25.1 -284,-61.4 	" />
		<polygon id="polygon2995" style="fill:#EBEBEB;" points="-284,-135 -284.1,-135 -375.1,-135 -371.8,-98.6 -284,-98.6 	" />
		<polygon id="polygon2997" style="fill:#EBEBEB;" points="-284,70.7 -284,32.9 -284.1,33 -324.6,22 -327.2,-6.9 -346.8,-6.9 
		-363.6,-6.9 -358.6,50.1 -284.1,70.8 	" />
		<polygon id="polygon3005" style="fill:#FFFFFF;" points="-239.4,-25.1 -243.6,22 -284.1,33 -284.1,70.7 -209.6,50.1 -209.1,44 
		-200.5,-51.7 -199.7,-61.4 -193.1,-135 -284.1,-135 -284.1,-98.6 -232.9,-98.6 -236.2,-61.4 -284.1,-61.4 -284.1,-25.1 	" />
	</g>
</svg>