<svg aria-hidden="true" focusable="false" role="img" xmlns="http://www.w3.org/2000/svg" viewBox="-164 -35 630 630">
	<rect x="-164" y="-35" style="fill:#F7DF1E;" width="630" height="630" />
	<path d="M-0.5,291.8h-68.1V355H7.3v19h-98.5V198.8H3.4v19h-72v55.4h68.1V291.8z" />
	<path d="M33.6,346.4c10.1,6.2,25,11.4,40.6,11.4c23.1,0,36.7-12.2,36.7-29.9c0-16.4-9.4-25.7-33-34.8c-28.6-10.1-46.3-25-46.3-49.7
	c0-27.3,22.6-47.6,56.7-47.6c17.9,0,30.9,4.2,38.7,8.6l-6.2,18.5c-5.7-3.1-17.4-8.3-33.3-8.3c-23.9,0-33,14.3-33,26.3
	c0,16.4,10.7,24.4,34.8,33.8c29.6,11.4,44.7,25.7,44.7,51.5c0,27-20,50.4-61.4,50.4c-16.9,0-35.4-4.9-44.7-11.2L33.6,346.4z" />
	<path d="M253.3,221.1c-4.7-0.3-10.7,0-17.2,1c-35.9,6-54.9,32.2-58.8,60.1h0.8c8.1-10.7,22.1-19.5,40.8-19.5c29.9,0,51,21.6,51,54.6
	c0,30.9-21.1,59.5-56.2,59.5c-36.1,0-59.8-28.1-59.8-72c0-33.3,12-59.5,28.6-76.2c14-13.8,32.8-22.4,54.1-25
	c6.8-1,12.5-1.3,16.6-1.3V221.1z M246.8,318.6c0-24.2-13.8-38.7-34.8-38.7c-13.8,0-26.5,8.6-32.8,20.8c-1.6,2.6-2.6,6-2.6,10.1
	c0.5,27.8,13.3,48.4,37.2,48.4C233.5,359.2,246.8,342.8,246.8,318.6z" />
	<path d="M362.3,216.9V278H421v15.6h-58.8v61.6h-16.6v-61.6h-58.8V278h58.8v-61.1H362.3z" />
</svg>