<svg aria-hidden="true" focusable="false" role="img" xmlns="http://www.w3.org/2000/svg" viewBox="-354 156 338 338">
<style type="text/css">
	.st0{fill:#DD0031;}
	.st1{fill:#C3002F;}
	.st2{fill:#FFFFFF;}
</style>
<g>
	<polygon class="st0" points="-185,156 -185,156 -185,156 -342.3,212.1 -318.3,420.1 -185,494 -185,494 -185,494 -51.7,420.1 
		-27.7,212.1 	"/>
	<polygon class="st1" points="-185,156 -185,193.5 -185,193.3 -185,364.5 -185,364.5 -185,494 -185,494 -51.7,420.1 -27.7,212.1 	
		"/>
	<path class="st2" d="M-185,193.3l-98.4,220.5l0,0h36.7l0,0l19.8-49.3h83.5l19.8,49.3l0,0H-87l0,0L-185,193.3L-185,193.3L-185,193.3
		L-185,193.3L-185,193.3z M-156.3,334.1h-57.5L-185,265L-156.3,334.1z"/>
</g>
</svg>
