<svg aria-hidden="true" focusable="false" role="img" xmlns="http://www.w3.org/2000/svg" viewBox="-394 50.8 326 326">
	<path style="fill:#4E7896;" d="M-277.5,291.1c0,0-11.9,7.3,8.3,9.3c24.4,3.1,37.4,2.6,64.4-2.6
	c0,0,7.3,4.7,17.1,8.3C-248.5,332.1-325.3,304.6-277.5,291.1L-277.5,291.1z M-285.3,257.4c0,0-13,9.9,7.3,11.9
	c26.5,2.6,47.2,3.1,83.1-4.2c0,0,4.7,5.2,12.5,7.8C-255.7,294.7-337.8,275-285.3,257.4L-285.3,257.4z M-142.1,316.5
	c0,0,8.8,7.3-9.9,13c-34.8,10.4-145.9,13.5-177,0c-10.9-4.7,9.9-11.4,16.6-12.5c6.7-1.6,10.4-1.6,10.4-1.6
	c-11.9-8.3-79.4,17.1-34.3,24.4C-212.1,360.1-109.9,331.1-142.1,316.5L-142.1,316.5z M-271.8,222.1c0,0-56.6,13.5-20.2,18.2
	c15.6,2.1,46.2,1.6,74.7-0.5c23.4-2.1,46.7-6.2,46.7-6.2s-8.3,3.6-14,7.3c-57.6,15.1-168.2,8.3-136.5-7.3
	C-294.2,220.5-271.8,222.1-271.8,222.1L-271.8,222.1z M-170.6,278.6c58.1-30.1,31.1-59.2,12.5-55.5c-4.7,1-6.7,2.1-6.7,2.1
	s1.6-3.1,5.2-4.2c36.9-13,65.9,38.9-11.9,59.2C-171.6,280.2-171.1,279.7-170.6,278.6L-170.6,278.6z M-266.1,360.7
	c56.1,3.6,141.7-2.1,143.8-28.5c0,0-4.2,10.4-46.2,18.2c-47.8,8.8-106.9,7.8-141.7,2.1C-310.2,352.3-303,358.6-266.1,360.7
	L-266.1,360.7z" />
	<path style="fill:#F58219;" d="M-205.9,50.8c0,0,32.2,32.7-30.6,82c-50.4,40-11.4,62.8,0,88.8c-29.6-26.5-50.9-49.8-36.3-71.6
	C-251.6,117.7-192.9,102.1-205.9,50.8L-205.9,50.8z" />
	<path style="fill:#F58219;" d="M-222.5,199.7c15.1,17.1-4.2,32.7-4.2,32.7s38.4-19.7,20.8-44.1c-16.1-23.4-28.5-34.8,38.9-73.7
	C-167,114.6-273.4,141.1-222.5,199.7L-222.5,199.7z" />
</svg>