<svg aria-hidden="true" focusable="false" role="img" xmlns="http://www.w3.org/2000/svg" viewBox="-461 263 338 338">
	<style type="text/css">
	.book1{fill:#553788;}
	.book2{fill:#9266CC;}
	.book3{fill:#CCD6DD;}
	.book4{fill:#99AAB5;}
	.book5{fill:#226699;}
	.book6{fill:#55ACEE;}
	.book7{fill:#F4900C;}
	.book8{fill:#FFAC33;}
</style>
	<path class="book1" d="M-325.7,557.2c0,21.3-7.6,38.5-28.9,38.5H-422c-38.5,0-38.5-134.8,0-134.8h67.4c21.3,0,28.9,17.2,28.9,38.5
		V557.2z" />
	<path class="book2" d="M-142.8,576.4h-9.6v-96.3h9.6c5.3,0,9.6-4.3,9.6-9.6s-4.3-9.6-9.6-9.6h-231.1c-38.5,0-38.5,134.8,0,134.8
		h231.1c5.3,0,9.6-4.3,9.6-9.6C-133.1,580.7-137.4,576.4-142.8,576.4z" />
	<path class="book3" d="M-141.1,576.4h-223.1c-19.3,0-19.3-96.3,0-96.3h223.1C-130.5,480.1-130.5,576.4-141.1,576.4z" />
	<path class="book4" d="M-359.4,499.4h224.8c-1.3-11.3-3.5-19.3-6.5-19.3h-223.1c-15.9,0-18.7,65.6-8.3,88.5
		C-376.3,540.1-371.9,499.4-359.4,499.4z" />
	<path class="book5" d="M-354.6,335.7c0,21.3-17.2,38.5-38.5,38.5h-38.5c-38.5,0-38.5-105.9,0-105.9h38.5c21.3,0,38.5,17.2,38.5,38.5
		V335.7z" />
	<path class="book6" d="M-171.6,355h-9.6v-67.4h9.6c5.3,0,9.6-4.3,9.6-9.6c0-5.3-4.3-9.6-9.6-9.6h-231.1c-38.5,0-38.5,105.9,0,105.9
		h231.1c5.3,0,9.6-4.3,9.6-9.6C-162,359.3-166.3,355-171.6,355z" />
	<path class="book3" d="M-170,355h-223.1c-19.3,0-19.3-67.4,0-67.4H-170C-159.4,287.6-159.4,355-170,355z" />
	<path class="book4" d="M-393.1,306.8h230.4c-1.1-10.8-3.5-19.3-7.3-19.3h-223.1c-11.5,0-16.1,24-13.8,43.3
		C-405.4,317.8-400.9,306.8-393.1,306.8z" />
	<path class="book7" d="M-277.6,422.4c0,21.3-17.2,38.5-38.5,38.5h-96.3c-38.5,0-38.5-86.7,0-86.7h96.3c21.3,0,38.5,17.2,38.5,38.5
		V422.4z" />
	<path class="book8" d="M-133.1,441.6h-9.6v-48.1h9.6c5.3,0,9.6-4.3,9.6-9.6s-4.3-9.6-9.6-9.6h-192.6c-38.5,0-38.5,86.7,0,86.7h192.6
		c5.3,0,9.6-4.3,9.6-9.6S-127.8,441.6-133.1,441.6z" />
	<path class="book3" d="M-131.5,441.6h-184.6c-19.3,0-19.3-48.1,0-48.1h184.6C-120.8,393.5-120.8,441.6-131.5,441.6z" />
	<path class="book4" d="M-316.1,412.7h192.4c-0.6-10.2-3.2-19.3-7.8-19.3h-184.6c-12.3,0-16.7,19.5-13.3,33.7
		C-327.5,419.1-323.1,412.7-316.1,412.7z" />
</svg>